<?xml version="1.0" encoding="UTF-8" standalone="no"?>
<!-- Created with Inkscape (http://www.inkscape.org/) -->

<svg
   width="48"
   height="48"
   viewBox="0 0 12.7 12.7"
   version="1.1"
   id="svg5"
   inkscape:version="1.1.2 (b8e25be833, 2022-02-05)"
   sodipodi:docname="rja icon.svg"
   inkscape:export-filename="H:\portfolio\rja icon.png"
   inkscape:export-xdpi="96"
   inkscape:export-ydpi="96"
   xmlns:inkscape="http://www.inkscape.org/namespaces/inkscape"
   xmlns:sodipodi="http://sodipodi.sourceforge.net/DTD/sodipodi-0.dtd"
   xmlns="http://www.w3.org/2000/svg"
   xmlns:svg="http://www.w3.org/2000/svg">
  <sodipodi:namedview
     id="namedview7"
     pagecolor="#ffffff"
     bordercolor="#666666"
     borderopacity="1.0"
     inkscape:pageshadow="2"
     inkscape:pageopacity="0.0"
     inkscape:pagecheckerboard="0"
     inkscape:document-units="mm"
     showgrid="false"
     inkscape:snap-bbox="true"
     inkscape:snap-intersection-paths="true"
     inkscape:snap-midpoints="true"
     inkscape:snap-smooth-nodes="true"
     inkscape:zoom="12.215376"
     inkscape:cx="11.215373"
     inkscape:cy="23.904299"
     inkscape:window-width="1920"
     inkscape:window-height="1009"
     inkscape:window-x="-8"
     inkscape:window-y="-8"
     inkscape:window-maximized="1"
     inkscape:current-layer="layer1"
     units="px"
     inkscape:snap-bbox-midpoints="false"
     inkscape:bbox-nodes="false"
     inkscape:snap-page="true" />
  <defs
     id="defs2" />
  <g
     inkscape:label="Layer 1"
     inkscape:groupmode="layer"
     id="layer1">
    <g
       id="g831"
       transform="matrix(1.28559,0,0,1.28559,-3.3234798,-1.4195011)">
      <g
         aria-label="RJ"
         id="text1640"
         style="font-size:50.8px;line-height:1.25;stroke-width:0.264583"
         transform="matrix(0.19259511,0,0,0.19259511,-7.090162,-15.878223)">
        <path
           d="M 50.236689,128.22212 V 97.340281 h 14.733984 c 1.703255,0 3.166732,0.620117 4.39043,1.860351 1.240234,1.240228 1.860351,2.720248 1.860351,4.440038 v 2.38125 c 0,1.73633 -0.611849,3.22461 -1.835547,4.46484 -1.223697,1.2237 -2.695442,1.83555 -4.415234,1.83555 h -2.654101 l 4.266406,7.31739 4.266406,7.31738 c 0.264583,0.42995 0.396875,0.85989 0.396875,1.28984 -0.179314,2.29289 -3.009152,1.22643 -4.180697,0.19844 l -4.711784,-7.68945 -4.898925,-8.4336 h -3.001367 v 15.89981 c 0,0.57877 -0.214974,1.07487 -0.644922,1.48828 -0.413411,0.39687 -0.909505,0.59531 -1.488281,0.59531 -0.578776,0 -1.07487,-0.19844 -1.488282,-0.59531 -0.396875,-0.41341 -0.595312,-0.90951 -0.595312,-1.48828 z m 4.167187,-20.067 h 10.566797 c 0.578776,0 1.066602,-0.19844 1.463477,-0.59531 0.413411,-0.41341 0.620117,-0.90951 0.620117,-1.48828 v -2.43086 c 0,-0.57877 -0.206706,-1.0666 -0.620117,-1.46348 -0.396875,-0.41341 -0.884701,-0.62011 -1.463477,-0.62011 H 54.403876 Z"
           style="font-family:'OCR A Extended';-inkscape-font-specification:'OCR A Extended'"
           id="path36603"
           sodipodi:nodetypes="scscsscsccccccccscscscsssscscc" />
        <path
           d="m 70.01732,125.4936 c 0.413411,0.39687 0.917773,0.59531 1.513086,0.59531 h 4.216797 c 0.578776,0 1.07487,-0.19844 1.488281,-0.59531 0.429948,-0.41341 0.644922,-0.90951 0.644922,-1.48828 V 99.423874 c 0,-0.578776 0.198437,-1.066601 0.595312,-1.463476 0.396875,-0.413411 0.876433,-0.620117 1.438672,-0.620117 0.562239,0 1.058333,0.223242 1.488281,0.669726 0.429948,0.446485 0.644922,0.950847 0.644922,1.513086 v 24.482227 c 0,1.75287 -0.636654,3.24115 -1.909961,4.46484 -1.273307,1.2237 -2.736784,1.83555 -4.390429,1.83555 h -4.216797 c -1.736328,0 -3.224609,-0.62012 -4.464844,-1.86035 z"
           style="font-family:'OCR A Extended';-inkscape-font-specification:'OCR A Extended'"
           id="path36605"
           sodipodi:nodetypes="csscsscssssssscc" />
      </g>
      <g
         aria-label="A"
         id="text2304"
         style="font-size:50.8px;line-height:1.25;stroke-width:0.264583"
         transform="matrix(0.19259511,0,0,0.19259511,-6.4213512,-16.012841)">
        <path
           d="m 78.13503,98.039254 19.92178,32.613596 v 0.3048 h -4.897433 l -5.551973,-9.398 H 76.340163 l 0.163294,-23.520396 z m -1.794867,19.659596 h 8.981134 l -8.981134,-15.24 z"
           style="font-family:Dubai;-inkscape-font-specification:Dubai;stroke-width:0.335428"
           id="path41357"
           sodipodi:nodetypes="cccccccccccc" />
      </g>
    </g>
  </g>
</svg>
